<svg xmlns="http://www.w3.org/2000/svg" version="1.1" viewBox="0 0 24 24">
<g>
<g opacity="1">
<path d="M19.4617+16.8457C17.2626+18.2986+14.7719+19.025+11.9891+19.025C9.20622+19.025+6.72007+18.2987+4.53117+16.8457L4.26605+16.9779L4.17775+17.2138C4.49183+19.1379+4.77164+20.571+5.01697+21.5132C5.21333+21.8567+5.46858+22.1585+5.78266+22.4185C6.09675+22.6786+6.45494+22.8926+6.85759+23.0593C7.25994+23.2259+7.63557+23.3584+7.98389+23.4568C8.3322+23.5553+8.73245+23.6433+9.18401+23.7219C10.195+23.8886+11.1841+23.9796+12.1509+23.9945C13.1178+24.009+14.1093+23.9009+15.1253+23.67C16.1414+23.4394+17.0714+23.0884+17.9157+22.6176C18.2691+22.4209+18.5538+22.1435+18.7696+21.7858C18.9855+21.4268+19.1252+21.0841+19.1891+20.7551C19.2528+20.426+19.3218+20.0143+19.3954+19.5177C19.469+19.0225+19.5449+18.6469+19.6236+18.3914C19.6236+18.3028+19.6627+18.1217+19.7413+17.8467C19.8197+17.5717+19.8443+17.351+19.8149+17.184C19.7857+17.0175+19.6677+16.9043+19.4617+16.8457Z" opacity="1" fill="#000000"/>
<path d="M2.30018+7.91474C2.40317+8.51856+2.5407+9.31123+2.71245+10.2931C2.88394+11.2749+3.01425+12.0112+3.10251+12.5018C3.12205+12.5898+3.14906+12.7624+3.18355+13.017C3.21783+13.2726+3.24725+13.4662+3.27186+13.5987C3.29621+13.7311+3.34031+13.8983+3.40453+14.099C3.46822+14.3009+3.55167+14.4722+3.65466+14.6142C3.75765+14.7568+3.88289+14.8868+4.0303+15.0048C5.46346+16.1046+7.39715+16.786+9.83168+17.0512C13.3457+17.4243+16.3399+16.9925+18.8135+15.7552C19.1374+15.5891+19.4047+15.4366+19.616+15.2991C19.8271+15.1615+20.0406+14.9654+20.2565+14.7102C20.4724+14.4555+20.6048+14.1799+20.6541+13.8854C21.4882+9.09528+22.0332+5.88064+22.2884+4.24097C22.3473+4.01545+22.3743+3.75032+22.3694+3.44611C22.3644+3.14195+22.2833+2.89178+22.1265+2.69489C21.5374+1.94873+20.4823+1.35081+18.9608+0.898676C16.0456+0.0445463+12.7274-0.200515+9.00719+0.162531C7.16149+0.339092+5.62534+0.653702+4.39846+1.10479C4.10391+1.21289+3.86847+1.30382+3.69164+1.37739C3.51508+1.45096+3.28904+1.56142+3.01425+1.70861C2.7392+1.85575+2.51849+2.00316+2.35154+2.1503C2.1846+2.29744+2.02998+2.48152+1.88765+2.70249C1.74532+2.92347+1.65946+3.16158+1.63+3.41678C1.7183+4.12307+1.82636+4.89891+1.95397+5.74268C2.08161+6.58723+2.19719+7.31144+2.30018+7.91474ZM14.529+13.6062C13.9303+14.3523+13.1841+14.7646+12.2909+14.8427C11.3874+14.9214+10.5754+14.6466+9.85393+14.0185C9.13238+13.3903+8.75198+12.6295+8.71264+11.7362C8.68322+11.0585+8.85257+10.4231+9.22069+9.82898C9.5888+9.2353+10.0822+8.80113+10.7004+8.52608C11.6625+8.09401+12.6293+8.15797+13.6012+8.71764C14.5732+9.27679+15.1275+10.082+15.265+11.1321C15.3731+12.0355+15.1277+12.8603+14.529+13.6062ZM5.94449+2.51868C6.25858+2.35173+6.52825+2.24363+6.7543+2.19497C6.98008+2.14601+7.30378+2.08744+7.72597+2.01841C10.4254+1.53764+13.2037+1.52777+16.0601+1.98842C16.5408+2.06733+16.8894+2.12888+17.1056+2.17246C17.3214+2.21687+17.6061+2.32494+17.9595+2.49699C18.3129+2.66901+18.5877+2.88705+18.784+3.15218C18.4994+3.43685+18.1312+3.6653+17.6797+3.83652C17.2281+4.00854+16.8722+4.11424+16.6122+4.15354C16.3519+4.19262+15.9129+4.25198+15.2944+4.3301C13.1346+4.60515+10.9358+4.59977+8.69761+4.31511C8.10847+4.24661+7.67911+4.19017+7.40918+4.14602C7.13898+4.10161+6.77834+3.99403+6.32703+3.82232C5.87542+3.6503+5.5025+3.42719+5.20822+3.15214C5.38508+2.89698+5.63014+2.68536+5.94449+2.51868Z" opacity="1" fill="#000000"/>
<path d="M13.2259+10.448C12.9559+10.158+12.6418+9.98382+12.2836+9.92524C11.9251+9.86609+11.5696+9.92524+11.2161+10.1018C10.8429+10.2685+10.5877+10.5539+10.4505+10.9561C10.3129+11.3587+10.3153+11.7613+10.4579+12.1634C10.6+12.5661+10.863+12.8507+11.2458+13.0177C11.7659+13.3317+12.3132+13.3023+12.8876+12.9291C13.4617+12.5565+13.7097+12.0607+13.6311+11.4422C13.6306+11.0692+13.4958+10.7377+13.2259+10.448Z" opacity="1" fill="#000000"/>
</g>
</g>
</svg>
