<svg xmlns="http://www.w3.org/2000/svg" version="1.1" viewBox="0 0 24 24">
  <path d="M12+22.108L16.4191+8.50758L7.58084+8.50758L11.9999+22.108L12+22.108Z" opacity="1" fill="#e24329" />
  <path d="M12+22.1079L7.58084+8.50748L1.38772+8.50748C1.38772+8.50748+12+22.1079+12+22.1079Z" opacity="1"
    fill="#fc6d26" />
  <path
    d="M1.38772+8.50748L0.0448496+12.6406C-0.0776394+13.0175+0.0565112+13.4305+0.377143+13.6635L12+22.108L1.38763+8.50758L1.38772+8.50748Z"
    opacity="1" fill="#fca326" />
  <path
    d="M1.38772+8.50758L7.58084+8.50758L4.9194+0.316099C4.78243-0.105413+4.18614-0.105319+4.04926+0.316099C4.04926+0.316099+1.38772+8.50758+1.38772+8.50758Z"
    opacity="1" fill="#e24329" />
  <path d="M12+22.1079L16.4191+8.50748L22.6123+8.50748L11.9999+22.1079L12+22.1079Z" opacity="1" fill="#fc6d26" />
  <path
    d="M22.6123+8.50748L23.9552+12.6406C24.0776+13.0176+23.9434+13.4305+23.6228+13.6635L12+22.108L22.6123+8.50758L22.6123+8.50748Z"
    opacity="1" fill="#fca326" />
  <path
    d="M22.6123+8.50758L16.4191+8.50758L19.0806+0.316099C19.2176-0.105413+19.8139-0.105319+19.9508+0.316099C19.9508+0.316099+22.6123+8.50758+22.6123+8.50758Z"
    opacity="1" fill="#e24329" />
</svg>