<svg xmlns="http://www.w3.org/2000/svg" width="24" height="24" viewBox="0 0 24 24">
<path d="M24+12.2806C24+19.1274+19.2344+24+12.1967+24C5.44918+24+0+18.6387+0+12C0+5.36129+5.44918+0+12.1967+0C15.482+0+18.2459+1.18548+20.3754+3.14032L17.0557+6.28065C12.7131+2.15806+4.6377+5.25484+4.6377+12C4.6377+16.1855+8.03607+19.5774+12.1967+19.5774C17.0262+19.5774+18.8361+16.171+19.1213+14.4048L12.1967+14.4048L12.1967+10.2774L23.8082+10.2774C23.9213+10.8919+24+11.4823+24+12.2806Z" opacity="1" fill="#000000"/>
</svg>
